<svg width="1120" height="760" viewBox="0 0 1120 760" xmlns="http://www.w3.org/2000/svg">
  <rect width="1120" height="760" rx="24" fill="#0d1117"/>
  <text x="56" y="64" fill="#f0f6fc" font-family="Segoe UI, Arial, sans-serif" font-size="30" font-weight="700">Use-Case Matrix</text>
  <text x="56" y="94" fill="#8b949e" font-family="Segoe UI, Arial, sans-serif" font-size="16">High-fit docs by task. Darker cells are lower fit; brighter cells are stronger starting points.</text>

  <text x="250" y="170" text-anchor="middle" fill="#79c0ff" font-family="Segoe UI, Arial, sans-serif" font-size="15" font-weight="700">00-index</text>
  <text x="400" y="170" text-anchor="middle" fill="#79c0ff" font-family="Segoe UI, Arial, sans-serif" font-size="15" font-weight="700">Workflow</text>
  <text x="550" y="170" text-anchor="middle" fill="#79c0ff" font-family="Segoe UI, Arial, sans-serif" font-size="15" font-weight="700">Skills</text>
  <text x="700" y="170" text-anchor="middle" fill="#79c0ff" font-family="Segoe UI, Arial, sans-serif" font-size="15" font-weight="700">Skill Graphs</text>
  <text x="850" y="170" text-anchor="middle" fill="#79c0ff" font-family="Segoe UI, Arial, sans-serif" font-size="15" font-weight="700">MCP Tools</text>
  <text x="1000" y="170" text-anchor="middle" fill="#79c0ff" font-family="Segoe UI, Arial, sans-serif" font-size="15" font-weight="700">Learning</text>

  <text x="64" y="230" fill="#f0f6fc" font-family="Segoe UI, Arial, sans-serif" font-size="16">Get unstuck fast</text>
  <text x="64" y="310" fill="#f0f6fc" font-family="Segoe UI, Arial, sans-serif" font-size="16">Plan multi-agent work</text>
  <text x="64" y="390" fill="#f0f6fc" font-family="Segoe UI, Arial, sans-serif" font-size="16">Author better skills</text>
  <text x="64" y="470" fill="#f0f6fc" font-family="Segoe UI, Arial, sans-serif" font-size="16">Structure project docs</text>
  <text x="64" y="550" fill="#f0f6fc" font-family="Segoe UI, Arial, sans-serif" font-size="16">Set up tooling stack</text>
  <text x="64" y="630" fill="#f0f6fc" font-family="Segoe UI, Arial, sans-serif" font-size="16">Learn the ecosystem</text>

  <rect x="180" y="190" width="120" height="52" rx="10" fill="#58a6ff"/>
  <rect x="330" y="190" width="120" height="52" rx="10" fill="#2f81f7"/>
  <rect x="480" y="190" width="120" height="52" rx="10" fill="#1f6feb"/>
  <rect x="630" y="190" width="120" height="52" rx="10" fill="#0d419d"/>
  <rect x="780" y="190" width="120" height="52" rx="10" fill="#0d419d"/>
  <rect x="930" y="190" width="120" height="52" rx="10" fill="#1f6feb"/>

  <rect x="180" y="270" width="120" height="52" rx="10" fill="#2f81f7"/>
  <rect x="330" y="270" width="120" height="52" rx="10" fill="#3fb950"/>
  <rect x="480" y="270" width="120" height="52" rx="10" fill="#1f6feb"/>
  <rect x="630" y="270" width="120" height="52" rx="10" fill="#0d419d"/>
  <rect x="780" y="270" width="120" height="52" rx="10" fill="#0d419d"/>
  <rect x="930" y="270" width="120" height="52" rx="10" fill="#0d419d"/>

  <rect x="180" y="350" width="120" height="52" rx="10" fill="#1f6feb"/>
  <rect x="330" y="350" width="120" height="52" rx="10" fill="#2f81f7"/>
  <rect x="480" y="350" width="120" height="52" rx="10" fill="#d29922"/>
  <rect x="630" y="350" width="120" height="52" rx="10" fill="#f2cc60"/>
  <rect x="780" y="350" width="120" height="52" rx="10" fill="#0d419d"/>
  <rect x="930" y="350" width="120" height="52" rx="10" fill="#0d419d"/>

  <rect x="180" y="430" width="120" height="52" rx="10" fill="#1f6feb"/>
  <rect x="330" y="430" width="120" height="52" rx="10" fill="#0d419d"/>
  <rect x="480" y="430" width="120" height="52" rx="10" fill="#0d419d"/>
  <rect x="630" y="430" width="120" height="52" rx="10" fill="#1f6feb"/>
  <rect x="780" y="430" width="120" height="52" rx="10" fill="#2f81f7"/>
  <rect x="930" y="430" width="120" height="52" rx="10" fill="#0d419d"/>

  <rect x="180" y="510" width="120" height="52" rx="10" fill="#0d419d"/>
  <rect x="330" y="510" width="120" height="52" rx="10" fill="#1f6feb"/>
  <rect x="480" y="510" width="120" height="52" rx="10" fill="#0d419d"/>
  <rect x="630" y="510" width="120" height="52" rx="10" fill="#0d419d"/>
  <rect x="780" y="510" width="120" height="52" rx="10" fill="#58a6ff"/>
  <rect x="930" y="510" width="120" height="52" rx="10" fill="#2f81f7"/>

  <rect x="180" y="590" width="120" height="52" rx="10" fill="#1f6feb"/>
  <rect x="330" y="590" width="120" height="52" rx="10" fill="#0d419d"/>
  <rect x="480" y="590" width="120" height="52" rx="10" fill="#0d419d"/>
  <rect x="630" y="590" width="120" height="52" rx="10" fill="#1f6feb"/>
  <rect x="780" y="590" width="120" height="52" rx="10" fill="#2f81f7"/>
  <rect x="930" y="590" width="120" height="52" rx="10" fill="#58a6ff"/>

  <text x="615" y="700" text-anchor="middle" fill="#8b949e" font-family="Segoe UI, Arial, sans-serif" font-size="14">Scale: bright = strongest first read, medium = supporting read, dark = optional context</text>
</svg>
